<svg width="153" height="24" viewBox="0 0 153 24" fill="none" xmlns="http://www.w3.org/2000/svg">
<g id="Layer_1" clip-path="url(#clip0_2_12691)">
<g id="Group">
<path id="Vector" d="M11.9819 14.6575C13.4595 14.6575 14.6572 13.4597 14.6572 11.9822C14.6572 10.5047 13.4595 9.30688 11.9819 9.30688C10.5044 9.30688 9.30664 10.5047 9.30664 11.9822C9.30664 13.4597 10.5044 14.6575 11.9819 14.6575Z" fill="#4A5464"/>
<g id="Group_2">
<g id="Group_3">
<path id="Vector_2" d="M21.2886 5.35059C22.7661 5.35059 23.9639 4.15282 23.9639 2.6753C23.9639 1.19777 22.7661 0 21.2886 0C19.8111 0 18.6133 1.19777 18.6133 2.6753C18.6133 4.15282 19.8111 5.35059 21.2886 5.35059Z" fill="#FFBE2F"/>
<path id="Vector_3" d="M20.045 10.2955C21.0179 9.32261 20.3876 7.11486 18.6371 5.36436C16.8866 3.61387 14.6788 2.98351 13.7059 3.95642C12.733 4.92932 13.3634 7.13707 15.1139 8.88757C16.8644 10.6381 19.0721 11.2684 20.045 10.2955Z" fill="#FFBE2F"/>
</g>
<g id="Group_4">
<path id="Vector_4" d="M2.71045 24.002C4.18798 24.002 5.38575 22.8042 5.38575 21.3267C5.38575 19.8491 4.18798 18.6514 2.71045 18.6514C1.23293 18.6514 0.0351562 19.8491 0.0351562 21.3267C0.0351562 22.8042 1.23293 24.002 2.71045 24.002Z" fill="#FF857B"/>
<path id="Vector_5" d="M10.2921 20.0433C11.265 19.0704 10.6347 16.8627 8.88416 15.1122C7.13366 13.3617 4.92591 12.7313 3.95301 13.7042C2.9801 14.6771 3.61046 16.8849 5.36095 18.6354C7.11145 20.3859 9.3192 21.0162 10.2921 20.0433Z" fill="#FF857B"/>
</g>
</g>
<g id="Group_5">
<g id="Group_6">
<path id="Vector_6" d="M21.3267 23.9646C22.8042 23.9646 24.002 22.7668 24.002 21.2893C24.002 19.8118 22.8042 18.614 21.3267 18.614C19.8491 18.614 18.6514 19.8118 18.6514 21.2893C18.6514 22.7668 19.8491 23.9646 21.3267 23.9646Z" fill="#B9ABCF"/>
<path id="Vector_7" d="M18.6361 18.6369C20.3866 16.8864 21.017 14.6786 20.0441 13.7057C19.0712 12.7328 16.8634 13.3632 15.1129 15.1137C13.3624 16.8641 12.7321 19.0719 13.705 20.0448C14.6779 21.0177 16.8856 20.3874 18.6361 18.6369Z" fill="#B9ABCF"/>
</g>
<g id="Group_7">
<path id="Vector_8" d="M2.6753 5.38624C4.15282 5.38624 5.35059 4.18847 5.35059 2.71094C5.35059 1.23342 4.15282 0.0356445 2.6753 0.0356445C1.19777 0.0356445 0 1.23342 0 2.71094C0 4.18847 1.19777 5.38624 2.6753 5.38624Z" fill="#7DD0B7"/>
<path id="Vector_9" d="M8.88611 8.88637C10.6366 7.13588 11.267 4.92813 10.2941 3.95522C9.32115 2.98231 7.1134 3.61267 5.36291 5.36317C3.61241 7.11366 2.98206 9.32141 3.95496 10.2943C4.92787 11.2672 7.13562 10.6369 8.88611 8.88637Z" fill="#7DD0B7"/>
</g>
</g>
</g>
<g id="Group_8">
<path id="Vector_10" d="M41.9034 6.05835V7.72392H35.7436V11.0197H41.5519V12.6853H35.7436V17.9462H33.7949V6.05835H41.901H41.9034Z" fill="#4A5464"/>
<path id="Vector_11" d="M48.4619 9.32096V11.2177C48.0302 11.0856 47.6291 11.0337 47.2304 11.0337C46.7303 11.0337 46.282 11.2177 45.8833 11.6164C45.4162 12.067 45.2015 12.6474 45.2015 13.3811V17.9414H43.3213V9.33512H45.2015V10.5666C45.4351 10.1349 45.7017 9.79988 46.0178 9.56868C46.4 9.25255 46.8506 9.10156 47.3838 9.10156C47.799 9.10156 48.167 9.16762 48.4666 9.31861L48.4619 9.32096Z" fill="#4A5464"/>
<path id="Vector_12" d="M56.4527 10.5359C57.1345 11.4017 57.4837 12.6166 57.4837 14.1643H51.0431C51.1092 14.964 51.3262 15.5798 51.6919 15.995C52.0576 16.4102 52.5908 16.6272 53.2725 16.6272C53.8553 16.6272 54.3224 16.4951 54.6881 16.2285C54.9712 16.0115 55.2212 15.6623 55.4548 15.1811H57.3516C57.151 15.9808 56.7523 16.6626 56.1531 17.1958C55.3864 17.8446 54.438 18.1772 53.2891 18.1772C52.008 18.1772 50.9912 17.7785 50.2434 16.9953C49.4436 16.179 49.0449 15.0655 49.0449 13.6334C49.0449 12.3524 49.4106 11.2861 50.1773 10.4203C50.911 9.53793 51.9255 9.1062 53.2065 9.1062C54.622 9.1062 55.7025 9.57332 56.4527 10.5382V10.5359ZM51.7745 11.1846C51.4253 11.5338 51.1918 12.0504 51.0762 12.7322H55.5043C55.3368 11.3333 54.589 10.6515 53.2584 10.6515C52.6261 10.6515 52.1425 10.819 51.7768 11.1846H51.7745Z" fill="#4A5464"/>
<path id="Vector_13" d="M65.8887 10.5359C66.5705 11.4017 66.9196 12.6166 66.9196 14.1643H60.4767C60.5428 14.964 60.7598 15.5798 61.1255 15.995C61.4912 16.4102 62.0243 16.6272 62.7061 16.6272C63.2889 16.6272 63.756 16.4951 64.1216 16.2285C64.4047 16.0115 64.6548 15.6623 64.8884 15.1811H66.7851C66.5846 15.9808 66.1859 16.6626 65.5867 17.1958C64.82 17.8446 63.8716 18.1772 62.7227 18.1772C61.4416 18.1772 60.4248 17.7785 59.677 16.9953C58.8772 16.179 58.4785 15.0655 58.4785 13.6334C58.4785 12.3524 58.8442 11.2861 59.6109 10.4203C60.3423 9.53793 61.3591 9.1062 62.6401 9.1062C64.0556 9.1062 65.1361 9.57332 65.8863 10.5382L65.8887 10.5359ZM61.2104 11.1846C60.8613 11.5338 60.6277 12.0504 60.5121 12.7322H64.9403C64.7728 11.3333 64.0249 10.6515 62.692 10.6515C62.0597 10.6515 61.5761 10.819 61.2104 11.1846Z" fill="#4A5464"/>
<path id="Vector_14" d="M70.4827 5.82471V17.9438H68.5859V5.82471H70.4827Z" fill="#4A5464"/>
<path id="Vector_15" d="M79.3717 10.0524C79.9049 10.6021 80.1715 11.4018 80.1715 12.4493V17.9414H78.4068V16.809C78.0742 17.2408 77.6589 17.5569 77.1753 17.7905C76.6256 18.0405 75.9769 18.1726 75.229 18.1726C74.3302 18.1726 73.6318 17.9391 73.1152 17.4908C72.582 17.0237 72.3154 16.4434 72.3154 15.7262C72.3154 14.7613 72.6811 14.0111 73.4478 13.4944C74.1461 12.9943 75.1299 12.7277 76.3944 12.6947L78.2747 12.6451V12.3125C78.2747 11.1801 77.6589 10.6304 76.4275 10.6304C75.8943 10.6304 75.4791 10.713 75.1629 10.9135C74.7973 11.1305 74.5472 11.4632 74.4481 11.9114L72.5679 11.7604C72.7519 10.812 73.2166 10.1137 73.9668 9.67964C74.5991 9.28094 75.4649 9.09692 76.5643 9.09692C77.8288 9.09692 78.7772 9.41305 79.3764 10.0453L79.3717 10.0524ZM76.5242 14.063C75.0096 14.096 74.2594 14.6292 74.2594 15.6601C74.2594 15.9597 74.375 16.2098 74.6416 16.408C74.9082 16.6062 75.2408 16.7241 75.656 16.7241C76.3874 16.7241 77.0055 16.5071 77.5032 16.0919C78.0034 15.6601 78.27 15.1104 78.27 14.4452V14.0134L76.5218 14.063H76.5242Z" fill="#4A5464"/>
<path id="Vector_16" d="M89.8396 12.6333V17.9438H87.9428V12.8008C87.9428 11.3853 87.294 10.687 85.9965 10.687C85.5294 10.687 85.1142 10.8545 84.765 11.1871C84.3663 11.5528 84.1328 12.086 84.0667 12.7678V17.9438H82.1699V9.33756H84.0667V10.3355C84.3993 9.93679 84.7815 9.62066 85.1991 9.42013C85.6308 9.20309 86.0979 9.104 86.6146 9.104C88.7614 9.104 89.8443 10.2694 89.8443 12.6333H89.8396Z" fill="#4A5464"/>
<path id="Vector_17" d="M98.363 9.85186C99.0448 10.385 99.4789 11.1824 99.644 12.2653H97.7638C97.6482 11.7156 97.4146 11.3169 97.082 11.0503C96.7328 10.7837 96.2657 10.6516 95.6995 10.6516C95.0012 10.6516 94.4515 10.9017 94.0504 11.4349C93.6517 11.9515 93.4512 12.6829 93.4512 13.6147C93.4512 14.5466 93.6352 15.3133 94.0339 15.8441C94.3996 16.3608 94.9493 16.6274 95.683 16.6274C96.9475 16.6274 97.6482 15.9951 97.7968 14.7471H99.677C99.4765 15.9126 99.0283 16.7784 98.3465 17.3446C97.6812 17.8943 96.7823 18.1774 95.6665 18.1774C94.3359 18.1774 93.3026 17.7456 92.5712 16.8798C91.8564 16.047 91.5049 14.9665 91.5049 13.6336C91.5049 12.3007 91.854 11.2697 92.5547 10.4534C93.3026 9.55461 94.3524 9.104 95.6995 9.104C96.8154 9.104 97.6977 9.35408 98.363 9.85422V9.85186Z" fill="#4A5464"/>
<path id="Vector_18" d="M108.083 10.5359C108.764 11.4017 109.114 12.6166 109.114 14.1643H102.673C102.739 14.964 102.956 15.5798 103.322 15.995C103.687 16.4102 104.221 16.6272 104.902 16.6272C105.485 16.6272 105.952 16.4951 106.318 16.2285C106.601 16.0115 106.851 15.6623 107.085 15.1811H108.981C108.781 15.9808 108.382 16.6626 107.783 17.1958C107.016 17.8446 106.068 18.1772 104.919 18.1772C103.638 18.1772 102.621 17.7785 101.873 16.9953C101.074 16.179 100.675 15.0655 100.675 13.6334C100.675 12.3524 101.04 11.2861 101.807 10.4203C102.541 9.53793 103.555 9.1062 104.836 9.1062C106.252 9.1062 107.332 9.57332 108.083 10.5382V10.5359ZM103.404 11.1846C103.055 11.5338 102.822 12.0504 102.706 12.7322H107.134C106.967 11.3333 106.219 10.6515 104.888 10.6515C104.256 10.6515 103.772 10.819 103.407 11.1846H103.404Z" fill="#4A5464"/>
<path id="Vector_19" d="M115.755 9.32096V11.2177C115.323 11.0856 114.922 11.0337 114.523 11.0337C114.023 11.0337 113.575 11.2177 113.176 11.6164C112.709 12.067 112.495 12.6474 112.495 13.3811V17.9414H110.614V9.33512H112.495V10.5666C112.728 10.1349 112.995 9.79988 113.311 9.56868C113.693 9.25255 114.144 9.10156 114.677 9.10156C115.092 9.10156 115.46 9.16762 115.76 9.31861L115.755 9.32096Z" fill="#4A5464"/>
<path id="Vector_20" d="M124.494 6.05835V11.0197H130.519V6.05835H132.468V17.9438H130.519V12.6829H124.494V17.9438H122.545V6.05835H124.494Z" fill="#4A5464"/>
<path id="Vector_21" d="M136.528 9.3374V14.5818C136.528 15.2801 136.66 15.7803 136.959 16.1129C137.259 16.4291 137.726 16.5966 138.391 16.5966C138.807 16.5966 139.208 16.4125 139.59 16.0634C139.972 15.6977 140.255 15.2141 140.423 14.5983V9.3374H142.319V17.9436H140.423V16.8278C139.691 17.7266 138.79 18.1772 137.726 18.1772C135.662 18.1772 134.631 17.0118 134.631 14.6974V9.3374H136.528Z" fill="#4A5464"/>
<path id="Vector_22" d="M146.214 5.82471V10.5194C146.912 9.57106 147.778 9.10395 148.779 9.10395C150.01 9.10395 150.975 9.55455 151.692 10.4534C152.341 11.2862 152.674 12.3336 152.674 13.6005C152.674 14.8674 152.341 15.9974 151.676 16.8302C150.944 17.7291 149.944 18.1797 148.679 18.1797C147.547 18.1797 146.681 17.7975 146.082 17.0308V17.9461H144.317V5.82471H146.214ZM146.813 11.3853C146.363 11.9184 146.148 12.6498 146.148 13.5651V13.6972C146.148 14.53 146.316 15.2283 146.681 15.7615C147.08 16.3442 147.646 16.6438 148.396 16.6438C149.229 16.6438 149.845 16.3442 150.244 15.745C150.56 15.2449 150.727 14.53 150.727 13.5982C150.727 12.6663 150.543 11.9656 150.211 11.4843C149.812 10.9181 149.18 10.635 148.33 10.635C147.715 10.635 147.214 10.8851 146.816 11.3853H146.813Z" fill="#4A5464"/>
</g>
</g>
<defs>
<clipPath id="clip0_2_12691">
<rect width="152.674" height="23.9998" fill="white"/>
</clipPath>
</defs>
</svg>
